HIERARCHY
ROOT Hips
{
  OFFSET -148.359 95.3828 56.7144
  CHANNELS 6 Xposition Yposition Zposition Zrotation Xrotation Yrotation
  JOINT RightUpLeg
  {
    OFFSET -8.9458 -8.66707 0.101652
    CHANNELS 3 Zrotation Xrotation Yrotation
    JOINT RightLeg
    {
      OFFSET 0 -44.4227 1.3727
      CHANNELS 3 Zrotation Xrotation Yrotation
      JOINT RightFoot
      {
        OFFSET 0.253549 -42.0924 -1.46059
        CHANNELS 3 Zrotation Xrotation Yrotation
        JOINT RightToes
        {
          OFFSET 0.04 -4.41509 8.4991
          CHANNELS 3 Zrotation Xrotation Yrotation
          End Site
          {
            OFFSET -0.08 -0.137448 9.77979
          }
        }
      }
    }
  }
  JOINT Spine
  {
    OFFSET 0 11.8905 0
    CHANNELS 3 Zrotation Xrotation Yrotation
    JOINT Spine1
    {
      OFFSET 0 25.6574 0.127663
      CHANNELS 3 Zrotation Xrotation Yrotation
      JOINT HEad
      {
        OFFSET 0 8.73416 0.011341
        CHANNELS 3 Zrotation Xrotation Yrotation
        End Site
        {
          OFFSET -0.29 12.7742 2.51395
        }
      }
      JOINT LeftShoulder1
      {
        OFFSET 8.99 -0.362252 -0.22
        CHANNELS 3 Zrotation Xrotation Yrotation
        JOINT LeftArm
        {
          OFFSET 10.2827 -0.00338 0.322123
          CHANNELS 3 Zrotation Xrotation Yrotation
          JOINT LeftForeArm
          {
            OFFSET 32.7669 0.099144 -1.42434
            CHANNELS 3 Zrotation Xrotation Yrotation
            JOINT LeftHand
            {
              OFFSET 27.5643 0.085362 1.02216
              CHANNELS 3 Zrotation Xrotation Yrotation
              End Site
              {
                OFFSET 16.7443 -0.6 1.50291
              }
            }
          }
        }
      }
      JOINT RightShoulder
      {
        OFFSET -8.99 -0.362252 -0.22
        CHANNELS 3 Zrotation Xrotation Yrotation
        JOINT RightArm
        {
          OFFSET -10.2827 -0.00338 0.322123
          CHANNELS 3 Zrotation Xrotation Yrotation
          JOINT RightForeArm
          {
            OFFSET -32.8971 0.099144 -1.42434
            CHANNELS 3 Zrotation Xrotation Yrotation
            JOINT RightHand
            {
              OFFSET -27.4921 0.085362 1.02216
              CHANNELS 3 Zrotation Xrotation Yrotation
              End Site
              {
                OFFSET -16.6312 -0.6 1.50291
              }
            }
          }
        }
      }
    }
  }
  JOINT LeftUpLeg
  {
    OFFSET 8.9458 -8.66707 0.101652
    CHANNELS 3 Zrotation Xrotation Yrotation
    JOINT LeftLeg
    {
      OFFSET 0 -44.4227 1.3727
      CHANNELS 3 Zrotation Xrotation Yrotation
      JOINT LeftFoot
      {
        OFFSET -0.253549 -42.0924 -1.46059
        CHANNELS 3 Zrotation Xrotation Yrotation
        JOINT LeftToes
        {
          OFFSET -0.04 -4.41509 8.4991
          CHANNELS 3 Zrotation Xrotation Yrotation
          End Site
          {
            OFFSET 0.08 -0.047448 9.77979
          }
        }
      }
    }
  }
}
MOTION
Frames:	14
Frame Time:	0.0166667
-161.572 91.9119 59.6984 12.5201 -4.23957 82.3749 -32.3299 8.77381 28.7717 44.3164 -0.356222 -44.7602 100.353 2.57125 -3.73919 0.0462048 0.000533403 0.662642 -1.31707 24.3606 -0.504837 0.00778005 -2.30569e-008 -1.88605e-007 -2.7536 8.70337 8.43691 7.95139e-016 -3.97569e-016 -1.59028e-015 -107.515 -49.9451 -89.1219 -48.6433 52.3619 -58.062 15.6492 13.2795 -18.8009 23.8468 7.0244 -3.4009 101.043 -14.5278 71.2577 41.1336 57.9587 78.5274 15.6584 18.835 -0.313036 25.9361 -11.9999 7.30926 -41.406 20.9225 54.5225 -8.49606 -6.43899 -2.83464 -1.18446e-009 1.5602e-007 -4.87132e-009 
-160.991 92.5038 59.6086 12.4933 -4.01031 83.2222 -31.7572 8.78482 28.6433 44.619 -0.493266 -44.0399 100.46 2.53964 -3.64933 0.0462048 0.000533403 0.662642 -1.5802 24.3256 -0.504467 0.0111001 -2.30569e-008 0.00127973 -2.29936 8.8773 6.72843 -7.95139e-016 -5.46658e-016 -0 -111.717 -49.366 -93.0919 -56.981 54.0028 -52.1135 14.5414 9.05809 -24.6692 29.3619 6.46664 0.0165988 94.8699 -22.1373 69.0229 41.4857 62.4658 83.5028 5.36613 14.7698 -6.08897 25.0274 -12.4245 6.39095 -40.7709 21.3257 53.2072 -9.52243 -6.54729 -2.96618 -1.18446e-009 1.5602e-007 -4.87132e-009 
-160.481 93.0208 59.5456 12.4655 -3.76501 84.0607 -31.3299 8.9875 28.5131 45.3475 -0.26782 -43.0948 100.5 2.38077 -3.54853 0.0462048 0.000533403 0.662642 -1.50845 24.1859 -0.181021 0.0270803 -2.30569e-008 0.0307693 -1.80543 9.16091 4.06066 1.98785e-015 -2.48481e-015 -0 -117.358 -48.2468 -98.2093 -69.0663 55.077 -43.5587 15.1417 8.48803 -26.6844 34.4619 6.91084 5.30106 87.9622 -32.9155 65.637 38.0674 68.0176 94.2233 -6.19573 9.92251 -15.2339 23.8251 -13.036 5.21758 -39.6098 21.9083 51.4203 -10.727 -6.72468 -3.11715 -1.18447e-009 1.5602e-007 -4.87131e-009 
-160.081 93.5231 59.4781 12.4745 -3.49001 84.8909 -31.1884 9.67326 28.374 46.9455 0.889097 -41.957 100.465 1.86728 -3.45189 0.0462048 0.000533403 0.662642 -0.519929 23.6579 1.31756 0.062721 0.00203995 0.100428 -0.95856 9.71154 -1.71787 -3.97569e-016 -2.21148e-015 1.59028e-015 -126.541 -46.8581 -106.434 -84.9784 53.298 -30.8432 18.5184 13.364 -23.6884 34.4116 10.4175 15.1137 82.5764 -49.9551 59.3964 33.4087 67.4512 103.605 -10.3047 1.48118 -23.7171 21.59 -14.261 3.19794 -37.0856 22.7505 48.2206 -12.1441 -7.14708 -3.29174 -1.18446e-009 1.5602e-007 -4.87131e-009 
-159.768 94.0333 59.3809 12.5189 -3.19611 85.7016 -31.2372 10.7015 28.2023 48.561 2.39518 -41.009 100.291 1.25047 -3.43638 0.0462048 0.000533403 0.662642 1.1805 22.8959 3.84775 0.051371 0.01514 0.0978887 -0.555887 10.401 -8.56847 4.96962e-017 -6.20814e-016 9.93923e-017 -136.853 -45.2574 -114.985 -99.9594 48.6065 -19.0869 19.2805 12.914 -25.0689 33.6232 9.31689 13.0087 69.7739 -52.1985 42.9179 31.5907 61.9683 107.429 -9.58031 -6.83979 -23.0814 18.3669 -15.8847 0.311466 -33.2569 23.9917 43.899 -13.8077 -7.74007 -3.50192 -1.18446e-009 1.5602e-007 -4.87131e-009 
-159.501 94.5043 59.2576 12.6022 -2.90981 86.4747 -31.3884 11.9678 27.9993 49.6871 3.97299 -40.4866 100.08 0.643075 -3.49291 0.0462048 0.000533403 0.662642 3.47435 22.026 7.23497 0.0439009 0.02054 0.0860589 -0.556667 11.2004 -16.2391 0 4.96962e-016 -0 -142.47 -43.0472 -117.195 -107.956 44.8691 -13.1748 21.5531 15.3139 -23.8806 32.3725 8.02358 9.94652 62.2638 -47.881 36.2922 40.6959 44.3743 90.9251 3.29446 -16.7889 -12.7086 14.9493 -17.3737 -2.55515 -28.6251 25.5883 37.8327 -15.537 -8.39126 -3.69695 -1.18447e-009 1.5602e-007 -4.87131e-009 
-159.241 94.9715 59.0964 12.7359 -2.65807 87.1893 -31.5924 13.3626 27.7849 50.1408 5.33755 -40.4686 99.8682 0.216751 -3.60108 0.0462048 0.000533403 0.662642 5.6154 20.984 10.2457 -0.0110973 0.021965 -0.0222697 -0.505019 12.1794 -23.021 7.95139e-016 -3.18055e-015 -1.59028e-015 -145.339 -42.0751 -116.73 -112.28 42.4872 -10.4653 22.2012 14.4648 -25.1513 30.8853 7.42133 6.93976 63.5732 -42.6903 40.3202 45.1633 24.2898 75.6214 18.2345 -8.37756 8.93209 10.9099 -18.6295 -5.5075 -22.5999 28.1405 32.2261 -18.1888 -8.96622 -3.833 -1.18446e-009 1.5602e-007 -4.87131e-009 
-158.987 95.4022 58.8949 12.9386 -2.46085 87.8244 -31.8014 14.8027 27.5701 49.9329 6.32509 -40.7623 99.7016 0.0339472 -3.74612 0.0462048 0.000533403 0.662642 7.55288 19.7937 12.7558 -0.0132743 0.0214575 -0.0348899 -0.445515 13.3309 -28.9188 -2.38542e-015 -3.97569e-016 -1.59028e-015 -146.374 -42.1137 -114.692 -114.443 41.2697 -9.52775 23.3872 15.3415 -24.6453 23.7411 10.5199 14.9656 74.5608 -48.7063 50.015 46.0964 5.90161 62.8342 32.5674 -3.91279 14.8715 7.09282 -19.0352 -8.44218 -16.7276 29.9077 27.2757 -20.5281 -9.28096 -3.77836 -1.18446e-009 1.5602e-007 -4.87131e-009 
-158.753 95.7532 58.6592 13.2145 -2.33012 88.3601 -32.028 16.1414 27.3919 50.5486 5.74421 -41.7004 99.6652 0.177413 -3.78598 0.0462048 0.000533403 0.662642 9.23362 18.5237 14.7525 -0.0120185 0.0203845 -0.0283502 -0.323635 14.5804 -33.7968 -4.41391e-032 7.95139e-016 3.18055e-015 -146.2 -42.9407 -111.952 -115.346 40.8441 -9.62108 23.4967 14.4034 -25.462 21.9936 10.9676 11.5661 83.1599 -42.4023 62.9415 44.7789 -9.09569 51.499 38.3528 11.0405 22.3222 3.94383 -18.8781 -11.1423 -12.0284 30.9688 23.4991 -22.167 -9.45199 -3.67674 -1.18446e-009 1.5602e-007 -4.87131e-009 
-158.529 96.0803 58.4221 13.556 -2.26386 88.7912 -32.2822 17.554 27.2157 50.0253 5.44393 -41.9546 99.6959 0.357212 -3.85843 0.0462048 0.000533403 0.662642 10.6051 17.264 16.2477 -0.00789015 0.020113 -0.0222002 -0.135326 15.8279 -37.6396 -1.59028e-015 -3.97569e-016 -3.18055e-015 -145.255 -44.1999 -108.995 -115.442 40.8868 -10.2242 23.7875 14.6199 -25.1156 19.9242 11.9554 9.23225 91.8626 -35.2925 76.1519 40.9948 -20.263 40.7683 48.1963 11.5359 18.0905 1.42804 -18.3923 -13.5309 -8.46998 31.5672 20.9057 -23.1851 -9.48318 -3.54928 -1.18447e-009 1.5602e-007 -4.87131e-009 
-158.311 96.3619 58.1961 13.9495 -2.25019 89.1312 -32.5452 18.9772 27.0436 48.8783 5.2843 -41.5432 99.795 0.515853 -3.9212 0.0462048 0.000533403 0.662642 11.6383 16.0748 17.2528 0.000689884 0.02201 -0.01877 0.113572 16.9918 -40.4931 -1.59028e-015 0 3.18055e-015 -143.891 -45.6171 -106.112 -115.031 41.196 -11.0068 23.4051 13.9395 -25.452 7.31885 14.2016 14.9855 111.437 -30.9352 92.6287 35.2483 -27.4361 30.621 51.294 23.3377 18.4741 -0.597589 -17.8079 -15.601 -5.82056 32.0203 19.3372 -23.7446 -9.43073 -3.41227 -1.18447e-009 1.5602e-007 -4.87131e-009 
-158.078 96.5843 57.9935 14.3707 -2.27088 89.404 -32.8087 20.3763 26.8724 47.4528 5.23315 -40.5038 99.9502 0.609253 -3.95228 0.0462048 0.000533403 0.662642 12.2883 15.0163 17.821 0.00542998 0.02859 -0.00920014 0.456709 17.9653 -42.4756 1.59028e-015 -3.97569e-016 -0 -142.334 -46.9678 -103.472 -114.31 41.6802 -11.7565 23.0902 14.0518 -24.9802 6.88783 15.6729 13.728 116.175 -23.6278 107.787 29.1917 -34.0317 19.7833 57.9619 14.0268 10.9821 -2.24631 -17.2381 -17.3761 -3.86673 32.4647 18.591 -23.9627 -9.31989 -3.26716 -1.18447e-009 1.5602e-007 -4.87131e-009 
-157.802 96.7507 57.7816 14.7913 -2.30373 89.6307 -33.0739 21.7244 26.7009 45.9485 5.27783 -38.94 100.177 0.629605 -3.97718 0.0462048 0.000533403 0.662642 12.5449 14.1232 17.9914 0.00734282 0.0322 -0.00174236 0.879802 18.7043 -43.6853 -2.20695e-032 -3.97569e-016 -3.18055e-015 -140.747 -48.1673 -101.159 -113.421 42.3045 -12.4012 22.4327 13.6661 -24.843 6.79058 17.0082 13.2744 117.524 -14.3837 114.184 33.7342 -34.2878 17.2362 46.1252 27.2534 -1.20565 -3.28196 -16.8424 -18.7638 -4.45659 32.7335 21.2025 -22.7075 -9.23535 -3.10217 -1.18447e-009 1.5602e-007 -4.87131e-009 
-157.45 96.8481 57.6029 15.1822 -2.33703 89.8175 -33.3333 22.987 26.5284 44.5776 5.41881 -37.0173 100.401 0.57269 -3.94726 0.0462048 0.000533403 0.662642 12.4198 13.4416 17.8255 0.00825128 0.04187 0.00974635 1.37091 19.1443 -44.2439 -1.59028e-015 1.19271e-015 6.36111e-015 -139.22 -49.1501 -99.1902 -112.487 43.0553 -12.9088 21.912 13.6916 -24.1786 6.99234 18.0555 14.1723 117.809 -9.54521 117.795 35.2866 -35.5281 14.868 46.2961 21.0703 -4.43851 -3.97581 -16.5094 -19.9372 -4.92471 33.0782 23.6833 -21.669 -9.09205 -2.92617 -1.18446e-009 1.5602e-007 -4.87131e-009 
